<?xml version="1.0" encoding="utf-8"?>
<svg id="master-artboard" viewBox="0 0 300 365" version="1.1" xmlns="http://www.w3.org/2000/svg" x="0px" y="0px" style="enable-background:new 0 0 336 235.2;" width="300px" height="365px"><rect id="ee-background" x="0" y="0" width="300" height="365" style="fill: white; fill-opacity: 0; pointer-events: none;"/><g transform="matrix(1, 0, 0, 1, -171.5941920754189, -549.5652181476737)">
		<g id="L60">
			<path class="st1" d="M341,755.8c-7.3,0.3-16.4-5.9-21.8-2c-0.8,0.6-1.4,1.3-1.7,2.1c3.1,1.8,7,3.1,9.7,2.9&#10;&#9;&#9;&#9;&#9;c-3.2,0.9-7,0.8-10.1-0.9c0,3.3,3,6.9,7.4,7.9C332.3,767.4,336.2,763.5,341,755.8z" style="fill: rgb(87, 138, 0);"/>
		</g>
		<g id="L59">
			<path class="st1" d="M346.3,742.6c-7.2-0.8-15.3-8.4-21.3-5.3c-0.9,0.5-1.6,1.1-2,1.8c2.8,2.3,6.5,4.2,9.1,4.4&#10;&#9;&#9;&#9;&#9;c-3.3,0.4-7.1-0.3-9.9-2.5c-0.5,3.3,1.9,7.3,6.1,8.9C335.9,752.7,340.4,749.4,346.3,742.6z" style="fill: rgb(87, 138, 0);"/>
		</g>
		<g id="L58">
			<path class="st1" d="M353,727.6c-7.2-0.8-15.3-8.4-21.3-5.3c-0.9,0.5-1.6,1.1-2,1.8c2.8,2.3,6.5,4.2,9.1,4.4&#10;&#9;&#9;&#9;&#9;c-3.3,0.4-7.1-0.3-9.9-2.5c-0.5,3.3,1.9,7.3,6.1,8.9C342.7,737.7,347.1,734.4,353,727.6z" style="fill: rgb(87, 138, 0);"/>
		</g>
		<g id="L57">
			<path class="st1" d="M285.5,694.5c-2.7,6.8-12.1,12.6-10.7,19.1c0.2,1,0.6,1.8,1.2,2.4c3-2.1,5.7-5.1,6.6-7.7&#10;&#9;&#9;&#9;&#9;c-0.4,3.3-2.2,6.7-5,8.9c3,1.4,7.6,0.1,10.2-3.6C292.5,707.2,290.5,702,285.5,694.5z" style="fill: rgb(87, 138, 0);"/>
		</g>
		<g id="L56">
			<path class="st1" d="M280.5,678.8c-3.4,6.5-13.4,11.2-12.7,17.8c0.1,1,0.4,1.8,0.9,2.5c3.2-1.8,6.2-4.5,7.4-6.9&#10;&#9;&#9;&#9;&#9;c-0.8,3.2-2.9,6.4-5.9,8.3c2.8,1.7,7.5,0.9,10.5-2.4C286.1,692.2,284.7,686.8,280.5,678.8z" style="fill: rgb(87, 138, 0);"/>
		</g>
		<g id="L55">
			<path class="st1" d="M209.7,658.5c1.4,7.1-3.4,17.1,1.3,21.9c0.7,0.7,1.5,1.2,2.3,1.4c1.4-3.4,2-7.4,1.4-10&#10;&#9;&#9;&#9;&#9;c1.4,3,1.8,6.8,0.6,10.1c3.3-0.5,6.4-4,6.7-8.5C222.4,665.3,218,662.1,209.7,658.5z" style="fill: rgb(87, 138, 0);"/>
		</g>
		<g id="L54">
			<path class="st1" d="M185.5,687.5c7.1-1.6,17.2,3,21.8-1.8c0.7-0.7,1.1-1.5,1.3-2.3c-3.4-1.3-7.5-1.9-10-1.2&#10;&#9;&#9;&#9;&#9;c3-1.5,6.8-2,10.1-0.8c-0.5-3.3-4.2-6.3-8.6-6.5C192.1,674.6,188.9,679.1,185.5,687.5z" style="fill: rgb(87, 138, 0);"/>
		</g>
		<g id="L53">
			<path class="st1" d="M358.3,712.5c-7.2-0.8-15.3-8.4-21.3-5.3c-0.9,0.5-1.6,1.1-2,1.8c2.8,2.3,6.5,4.2,9.1,4.4&#10;&#9;&#9;&#9;&#9;c-3.3,0.4-7.1-0.3-9.9-2.5c-0.5,3.3,1.9,7.3,6.1,8.9C348,722.6,352.4,719.4,358.3,712.5z" style="fill: rgb(87, 138, 0);"/>
		</g>
		<g id="L52">
			<path class="st1" d="M365.4,704.8c-6.4-3.5-10.9-13.6-17.6-13.1c-1,0.1-1.9,0.4-2.5,0.9c1.7,3.2,4.4,6.3,6.7,7.5&#10;&#9;&#9;&#9;&#9;c-3.2-0.9-6.4-3-8.1-6.1c-1.7,2.8-1.1,7.5,2.2,10.6C352,710.1,357.4,708.8,365.4,704.8z" style="fill: rgb(87, 138, 0);"/>
		</g>
		<g id="L51">
			<path class="st1" d="M379,700.2c-5.1-5.2-6.4-16.2-13-17.7c-1-0.2-1.9-0.2-2.7,0.1c0.7,3.6,2.3,7.3,4.2,9.2&#10;&#9;&#9;&#9;&#9;c-2.8-1.8-5.2-4.8-6-8.2c-2.5,2.2-3.2,6.9-1,10.7C364.6,701.4,370.1,701.7,379,700.2z" style="fill: rgb(87, 138, 0);"/>
		</g>
		<g id="L50">
			<path class="st1" d="M394.4,700c-4-6.1-3.2-17.2-9.3-19.8c-0.9-0.4-1.8-0.5-2.7-0.4c0,3.6,0.9,7.6,2.4,9.8&#10;&#9;&#9;&#9;&#9;c-2.4-2.3-4.2-5.7-4.3-9.2c-2.9,1.6-4.5,6.1-3,10.4C380,698.3,385.4,699.7,394.4,700z" style="fill: rgb(87, 138, 0);"/>
		</g>
		<g id="L49">
			<path class="st1" d="M410.2,700.8c-2.9-6.7-0.2-17.4-5.8-21.1c-0.8-0.6-1.7-0.8-2.5-0.9c-0.6,3.6-0.4,7.7,0.7,10.1&#10;&#9;&#9;&#9;&#9;c-2-2.6-3.2-6.3-2.7-9.8c-3.1,1.1-5.4,5.3-4.8,9.7C396.3,696.8,401.3,699,410.2,700.8z" style="fill: rgb(87, 138, 0);"/>
		</g>
		<g id="L48">
			<path class="st1" d="M428.8,697c-4.3-5.9-4-17-10.3-19.3c-0.9-0.4-1.8-0.4-2.7-0.3c0.2,3.6,1.2,7.6,2.9,9.7&#10;&#9;&#9;&#9;&#9;c-2.5-2.1-4.5-5.5-4.8-9c-2.8,1.8-4.2,6.3-2.5,10.5C414.4,696.1,419.8,697.2,428.8,697z" style="fill: rgb(87, 138, 0);"/>
		</g>
		<g id="L47">
			<path class="st1" d="M446.4,687.8c-5.9-4.2-9.3-14.8-15.9-15c-1,0-1.9,0.2-2.6,0.6c1.3,3.4,3.6,6.8,5.8,8.3c-3.1-1.2-6-3.7-7.4-7&#10;&#9;&#9;&#9;&#9;c-2.1,2.6-1.9,7.3,1,10.8C432.5,691.5,437.9,690.9,446.4,687.8z" style="fill: rgb(87, 138, 0);"/>
		</g>
		<g id="L46">
			<path class="st1" d="M459.9,668.2c-7.3,0-16.1-6.8-21.7-3.1c-0.8,0.6-1.4,1.2-1.8,2c3,2,6.9,3.5,9.5,3.4c-3.2,0.8-7,0.4-10.1-1.5&#10;&#9;&#9;&#9;&#9;c-0.2,3.3,2.7,7.1,7,8.2C450.6,679.3,454.7,675.6,459.9,668.2z" style="fill: rgb(87, 138, 0);"/>
		</g>
		<g id="L45">
			<path class="st1" d="M433.3,638.2c1.1,7.2-4.1,16.9,0.4,21.9c0.7,0.7,1.4,1.2,2.2,1.5c1.5-3.3,2.4-7.3,1.9-9.9&#10;&#9;&#9;&#9;&#9;c1.3,3,1.5,6.9,0.1,10.2c3.3-0.3,6.6-3.7,7-8.2C445.7,645.6,441.4,642.1,433.3,638.2z" style="fill: rgb(87, 138, 0);"/>
		</g>
		<g id="L44">
			<path class="st1" d="M329.1,655.2c1.1,7.2-4.1,16.9,0.4,21.9c0.7,0.7,1.4,1.2,2.2,1.5c1.5-3.3,2.4-7.3,1.9-9.9&#10;&#9;&#9;&#9;&#9;c1.3,3,1.5,6.9,0.1,10.2c3.3-0.3,6.6-3.7,7-8.2C341.6,662.6,337.3,659.2,329.1,655.2z" style="fill: rgb(87, 138, 0);"/>
		</g>
		<g id="L43">
			<path class="st1" d="M320.2,646.9c-1.2,7.2-9.3,14.7-6.6,20.9c0.4,0.9,1,1.6,1.6,2.1c2.5-2.7,4.6-6.2,4.9-8.8&#10;&#9;&#9;&#9;&#9;c0.2,3.3-0.8,7-3.1,9.7c3.2,0.7,7.4-1.5,9.3-5.5C329.6,657.9,326.7,653.2,320.2,646.9z" style="fill: rgb(87, 138, 0);"/>
		</g>
		<g id="L42">
			<path class="st1" d="M303.2,639.2c0.5,7.3-5.5,16.6-1.4,21.9c0.6,0.8,1.3,1.3,2.1,1.7c1.8-3.2,2.9-7.1,2.7-9.8&#10;&#9;&#9;&#9;&#9;c1,3.1,0.9,7-0.7,10.1c3.3-0.1,6.9-3.2,7.7-7.6C315,647.6,311,643.8,303.2,639.2z" style="fill: rgb(87, 138, 0);"/>
		</g>
		<g id="L41">
			<path class="st1" d="M318.5,631.5c-7-1.9-13.7-10.7-20.1-8.7c-1,0.3-1.7,0.8-2.3,1.4c2.4,2.7,5.7,5.2,8.3,5.8&#10;&#9;&#9;&#9;&#9;c-3.3-0.1-6.9-1.5-9.3-4c-1.1,3.1,0.7,7.5,4.6,9.8C306.6,639.8,311.6,637.3,318.5,631.5z" style="fill: rgb(87, 138, 0);"/>
		</g>
		<g id="L40">
			<path class="st1" d="M264.4,602.9c-4.6,5.7-15.3,8.4-15.9,15.1c-0.1,1,0.1,1.9,0.4,2.7c3.5-1.1,7-3.2,8.6-5.3&#10;&#9;&#9;&#9;&#9;c-1.4,3-4.1,5.8-7.4,7c2.5,2.2,7.2,2.3,10.8-0.4C267.3,617.1,267,611.5,264.4,602.9z" style="fill: rgb(87, 138, 0);"/>
		</g>
		<g id="L39">
			<path class="st1" d="M261.1,588.1c-5.3,5-16.3,6.2-17.8,12.7c-0.2,1-0.2,1.9,0,2.7c3.6-0.6,7.4-2.2,9.2-4.1&#10;&#9;&#9;&#9;&#9;c-1.8,2.8-4.8,5.2-8.3,5.9c2.1,2.5,6.8,3.3,10.7,1.1C262.1,602.5,262.5,597,261.1,588.1z" style="fill: rgb(87, 138, 0);"/>
		</g>
		<g id="L38">
			<path class="st1" d="M252.6,572.8c-5,5.3-16,7-17.2,13.6c-0.2,1-0.1,1.9,0.2,2.7c3.5-0.8,7.2-2.6,9-4.6c-1.6,2.9-4.6,5.4-8,6.3&#10;&#9;&#9;&#9;&#9;c2.3,2.4,7,2.9,10.8,0.6C254.3,587.1,254.4,581.6,252.6,572.8z" style="fill: rgb(87, 138, 0);"/>
		</g>
		<g id="L37">
			<path class="st1" d="M232.2,558.5c-1.3,7.2-9.4,14.7-6.7,20.9c0.4,0.9,1,1.6,1.6,2.1c2.5-2.6,4.6-6.2,5-8.8&#10;&#9;&#9;&#9;&#9;c0.2,3.3-0.8,7-3.1,9.7c3.2,0.7,7.4-1.4,9.3-5.5C241.6,569.5,238.6,564.8,232.2,558.5z" style="fill: rgb(87, 138, 0);"/>
		</g>
		<g id="L36">
			<path class="st1" d="M209.3,556c2.7,6.8-0.2,17.4,5.4,21.2c0.8,0.6,1.7,0.9,2.5,0.9c0.7-3.6,0.6-7.7-0.5-10.1&#10;&#9;&#9;&#9;&#9;c1.9,2.7,3,6.4,2.5,9.9c3.1-1.1,5.6-5.1,5-9.6C223.1,560.4,218.1,558,209.3,556z" style="fill: rgb(87, 138, 0);"/>
		</g>
		<g id="L35">
			<path class="st1" d="M188.3,584.9c7-1.9,17.3,2.2,21.7-2.8c0.7-0.8,1.1-1.6,1.2-2.4c-3.5-1.1-7.5-1.5-10.1-0.7&#10;&#9;&#9;&#9;&#9;c2.9-1.6,6.7-2.3,10.1-1.3c-0.7-3.2-4.5-6.1-8.9-6.1C194.3,571.7,191.4,576.4,188.3,584.9z" style="fill: rgb(87, 138, 0);"/>
		</g>
		<g id="L34">
			<path class="st1" d="M327,621.9c-6.5-3.3-11.4-13.2-18.1-12.4c-1,0.1-1.8,0.5-2.5,1c1.8,3.1,4.6,6.2,7,7.3&#10;&#9;&#9;&#9;&#9;c-3.2-0.7-6.5-2.8-8.4-5.8c-1.6,2.9-0.8,7.5,2.6,10.5C313.8,627.7,319.1,626.2,327,621.9z" style="fill: rgb(87, 138, 0);"/>
		</g>
		<g id="L33">
			<path class="st1" d="M345.1,614.7c-6.8-2.7-12.5-12.1-19.1-10.8c-1,0.2-1.8,0.6-2.4,1.2c2.1,3,5.1,5.7,7.6,6.6&#10;&#9;&#9;&#9;&#9;c-3.3-0.4-6.7-2.2-8.8-5c-1.4,3-0.1,7.6,3.5,10.2C332.5,621.7,337.6,619.7,345.1,614.7z" style="fill: rgb(87, 138, 0);"/>
		</g>
		<g id="L32">
			<path class="st1" d="M193.2,694.2c7.1-0.1,15.9-7.1,21.3-3.4c0.8,0.6,1.4,1.2,1.7,2c-3,2.1-6.8,3.6-9.4,3.6&#10;&#9;&#9;&#9;&#9;c3.1,0.7,6.9,0.3,9.9-1.6c0.1,3.4-2.8,7.3-7,8.5C202,705.4,198.1,701.7,193.2,694.2z" style="fill: rgb(87, 138, 0);"/>
		</g>
		<g id="L31">
			<path class="st1" d="M201.4,709.4c7.1-0.1,15.9-7.1,21.3-3.4c0.8,0.6,1.4,1.2,1.7,2c-3,2.1-6.8,3.6-9.4,3.6&#10;&#9;&#9;&#9;&#9;c3.1,0.7,6.9,0.3,9.9-1.6c0.1,3.4-2.8,7.3-7,8.5C210.2,720.6,206.3,716.9,201.4,709.4z" style="fill: rgb(87, 138, 0);"/>
		</g>
		<g id="L30">
			<path class="st1" d="M207.9,724.6c7.1-0.1,15.9-7.1,21.3-3.4c0.8,0.6,1.4,1.2,1.7,2c-3,2.1-6.8,3.6-9.4,3.6&#10;&#9;&#9;&#9;&#9;c3.1,0.7,6.9,0.3,9.9-1.6c0.1,3.4-2.8,7.3-7,8.5C216.7,735.8,212.8,732.1,207.9,724.6z" style="fill: rgb(87, 138, 0);"/>
		</g>
		<g id="L29">
			<path class="st1" d="M218.7,744.2c6.4-3.1,11.4-13.1,17.8-12.1c1,0.2,1.8,0.5,2.4,1.1c-1.8,3.2-4.6,6.2-7,7.2&#10;&#9;&#9;&#9;&#9;c3.1-0.6,6.4-2.6,8.2-5.6c1.5,3,0.6,7.7-2.8,10.6C231.4,750.7,226.2,749,218.7,744.2z" style="fill: rgb(87, 138, 0);"/>
		</g>
		<g id="L28">
			<path class="st1" d="M235.6,756.8c5-5.1,6.4-16.1,12.8-17.3c1-0.2,1.8-0.1,2.6,0.2c-0.7,3.6-2.3,7.3-4.2,9.1&#10;&#9;&#9;&#9;&#9;c2.8-1.6,5.1-4.6,5.9-8c2.4,2.3,3.1,7.1,0.9,11C249.8,758.7,244.3,758.7,235.6,756.8z" style="fill: rgb(87, 138, 0);"/>
		</g>
		<g id="L27">
			<path class="st1" d="M252.9,764.4c3.8-6,2.7-17.2,8.8-19.7c0.9-0.4,1.8-0.5,2.6-0.4c0.1,3.6-0.7,7.7-2.1,9.8c2.3-2.2,4-5.6,4-9.1&#10;&#9;&#9;&#9;&#9;c2.9,1.7,4.6,6.3,3.3,10.5C267.1,763.2,261.8,764.4,252.9,764.4z" style="fill: rgb(87, 138, 0);"/>
		</g>
		<g id="L26">
			<path class="st1" d="M355.6,650.7c-1.8,6.9,2.5,17.2-2.5,21.4c-0.8,0.6-1.6,1-2.4,1.1c-1.2-3.5-1.6-7.5-0.9-10&#10;&#9;&#9;&#9;&#9;c-1.6,2.8-2.2,6.5-1.2,9.9c-3.3-0.8-6.2-4.6-6.2-9.1C342.4,656.1,347.1,653.4,355.6,650.7z" style="fill: rgb(87, 138, 0);"/>
		</g>
		<g id="L25">
			<path class="st1" d="M327.7,580.7c-1.8,6.9,2.5,17.2-2.5,21.4c-0.8,0.6-1.6,1-2.4,1.1c-1.2-3.5-1.6-7.5-0.9-10&#10;&#9;&#9;&#9;&#9;c-1.6,2.8-2.2,6.5-1.2,9.9c-3.3-0.8-6.2-4.6-6.2-9.1C314.5,586.1,319.2,583.3,327.7,580.7z" style="fill: rgb(87, 138, 0);"/>
		</g>
		<g id="L24">
			<path class="st1" d="M304.4,580.9c1.3,7,9.6,14.5,6.8,20.4c-0.4,0.9-1,1.6-1.7,2c-2.5-2.6-4.7-6.1-5.1-8.7&#10;&#9;&#9;&#9;&#9;c-0.2,3.2,0.8,6.8,3.2,9.5c-3.3,0.7-7.6-1.5-9.5-5.6C294.8,591.4,297.9,586.9,304.4,580.9z" style="fill: rgb(87, 138, 0);"/>
		</g>
		<g id="L23">
			<path class="st1" d="M288,589c2.1,6.8,11.3,13.2,9.3,19.4c-0.3,0.9-0.8,1.7-1.4,2.2c-2.8-2.3-5.4-5.5-6.1-8&#10;&#9;&#9;&#9;&#9;c0.2,3.2,1.6,6.7,4.3,9c-3.2,1.1-7.7-0.6-10.1-4.3C279.8,600.6,282.2,595.7,288,589z" style="fill: rgb(87, 138, 0);"/>
		</g>
		<g id="L22">
			<path class="st1" d="M272.9,603.2c4.5,5.5,15.4,8,15.9,14.5c0.1,1-0.1,1.8-0.5,2.6c-3.5-1-7.1-3-8.6-5.1c1.4,2.9,4,5.6,7.4,6.7&#10;&#9;&#9;&#9;&#9;c-2.6,2.2-7.4,2.4-11-0.2C269.6,617.1,270.1,611.7,272.9,603.2z" style="fill: rgb(87, 138, 0);"/>
		</g>
		<g id="L21">
			<path class="st1" d="M263.2,622.4c6.5,3,17.4,0.4,20.7,6.1c0.5,0.8,0.7,1.7,0.7,2.5c-3.6,0.6-7.7,0.3-10-0.8&#10;&#9;&#9;&#9;&#9;c2.5,2,6.1,3.3,9.6,2.8c-1.3,3.1-5.6,5.4-10,4.6C266.3,636.3,264.4,631.3,263.2,622.4z" style="fill: rgb(87, 138, 0);"/>
		</g>
		<g id="L20">
			<path class="st1" d="M258.4,633.9c5.5,4.5,16.7,4.8,18.5,11c0.3,0.9,0.3,1.8,0.1,2.6c-3.6-0.3-7.5-1.6-9.5-3.3&#10;&#9;&#9;&#9;&#9;c1.9,2.6,5.1,4.7,8.6,5.1c-2.1,2.6-6.8,3.8-10.8,2C257.9,648.1,257.3,642.7,258.4,633.9z" style="fill: rgb(87, 138, 0);"/>
		</g>
		<g id="L19">
			<path class="st1" d="M200.5,599.4c5.3-4.7,7.4-15.7,13.9-16.5c1-0.1,1.8,0,2.6,0.4c-0.9,3.5-2.8,7.2-4.8,8.8&#10;&#9;&#9;&#9;&#9;c2.8-1.5,5.4-4.2,6.4-7.7c2.3,2.5,2.7,7.3,0.2,11C214.5,602.1,209.1,601.9,200.5,599.4z" style="fill: rgb(87, 138, 0);"/>
		</g>
		<g id="L18">
			<path class="st1" d="M211,605c6.6-2.8,12.1-12.5,18.5-11.1c1,0.2,1.7,0.6,2.4,1.2c-2,3-5,5.9-7.4,6.8c3.2-0.5,6.5-2.3,8.6-5.1&#10;&#9;&#9;&#9;&#9;c1.4,3.1,0.1,7.8-3.4,10.5C223.3,612.1,218.3,610.1,211,605z" style="fill: rgb(87, 138, 0);"/>
		</g>
		<g id="L17">
			<path class="st1" d="M215,615.1c7.1,0,16-6.8,21.3-3c0.8,0.6,1.4,1.3,1.7,2c-3,2-6.9,3.5-9.4,3.4c3.1,0.8,6.9,0.5,9.9-1.4&#10;&#9;&#9;&#9;&#9;c0.1,3.4-2.9,7.2-7.2,8.3C223.6,626.4,219.7,622.6,215,615.1z" style="fill: rgb(87, 138, 0);"/>
		</g>
		<g id="L16">
			<path class="st1" d="M217.7,628.1c7,1.2,16.9-4.1,21.5,0.5c0.7,0.7,1.1,1.5,1.3,2.3c-3.3,1.5-7.3,2.3-9.9,1.8&#10;&#9;&#9;&#9;&#9;c2.9,1.3,6.7,1.6,10,0.2c-0.5,3.3-4,6.6-8.4,7C224.3,640.8,221.2,636.4,217.7,628.1z" style="fill: rgb(87, 138, 0);"/>
		</g>
		<g id="L15">
			<path class="st1" d="M219.4,642.7c7,1.4,17-3.4,21.5,1.3c0.7,0.7,1.1,1.5,1.3,2.3c-3.4,1.4-7.4,2-9.9,1.4c2.9,1.4,6.6,1.8,10,0.6&#10;&#9;&#9;&#9;&#9;c-0.6,3.3-4.3,6.5-8.7,6.7C225.5,655.6,222.5,651.1,219.4,642.7z" style="fill: rgb(87, 138, 0);"/>
		</g>
		<g id="L14">
			<path class="st1" d="M221.2,657.4c6.9,1.6,17.1-3,21.5,1.8c0.7,0.7,1,1.5,1.2,2.4c-3.4,1.3-7.5,1.9-10,1.2c2.8,1.5,6.6,2,10,0.8&#10;&#9;&#9;&#9;&#9;c-0.7,3.3-4.4,6.4-8.9,6.5C227,670.4,224.1,665.9,221.2,657.4z" style="fill: rgb(87, 138, 0);"/>
		</g>
		<g id="L13">
			<path class="st1" d="M224,672.6c6.9,1.8,17.2-2.5,21.4,2.5c0.6,0.8,1,1.6,1.1,2.4c-3.5,1.2-7.5,1.7-10,0.9&#10;&#9;&#9;&#9;&#9;c2.8,1.6,6.5,2.2,9.9,1.1c-0.8,3.3-4.6,6.2-9,6.2C229.5,685.7,226.7,681.1,224,672.6z" style="fill: rgb(87, 138, 0);"/>
		</g>
		<g id="L12">
			<path class="st1" d="M227.8,686.8c6.7,2.4,17.3-1.1,21.1,4.2c0.6,0.8,0.9,1.6,0.9,2.5c-3.5,0.9-7.6,1-10,0.1&#10;&#9;&#9;&#9;&#9;c2.7,1.8,6.3,2.7,9.8,1.9c-1.1,3.2-5.1,5.8-9.5,5.5C232.2,700.3,229.8,695.5,227.8,686.8z" style="fill: rgb(87, 138, 0);"/>
		</g>
		<g id="L11">
			<path class="st1" d="M233.6,702c6.7,2.4,17.3-1.1,21.1,4.2c0.6,0.8,0.9,1.6,0.9,2.5c-3.5,0.9-7.6,1-10,0.1&#10;&#9;&#9;&#9;&#9;c2.7,1.8,6.3,2.7,9.8,1.9c-1.1,3.2-5.1,5.8-9.5,5.5C238,715.5,235.6,710.7,233.6,702z" style="fill: rgb(87, 138, 0);"/>
		</g>
		<g id="L10">
			<path class="st1" d="M270.5,673.2c6.4-3.2,11.3-13.2,17.7-12.2c1,0.2,1.8,0.5,2.4,1.1c-1.8,3.2-4.6,6.2-6.9,7.3&#10;&#9;&#9;&#9;&#9;c3.1-0.7,6.3-2.7,8.2-5.7c1.5,3,0.6,7.7-2.7,10.7C283.3,679.5,278.1,677.8,270.5,673.2z" style="fill: rgb(87, 138, 0);"/>
		</g>
		<g id="L9">
			<path class="st1" d="M285.4,685.1c5.3-4.8,7.2-15.8,13.7-16.6c1-0.1,1.8,0,2.6,0.3c-0.9,3.5-2.7,7.2-4.7,8.9&#10;&#9;&#9;&#9;&#9;c2.8-1.5,5.4-4.3,6.3-7.7c2.3,2.4,2.7,7.3,0.3,11C299.4,687.6,294,687.4,285.4,685.1z" style="fill: rgb(87, 138, 0);"/>
		</g>
		<g id="L8">
			<path class="st1" d="M295.3,690.9c6.6-2.7,12.2-12.3,18.6-10.9c1,0.2,1.7,0.7,2.3,1.2c-2,3-5,5.8-7.5,6.7&#10;&#9;&#9;&#9;&#9;c3.2-0.4,6.5-2.2,8.6-5.1c1.3,3.1,0,7.8-3.5,10.4C307.6,698.2,302.6,696.1,295.3,690.9z" style="fill: rgb(87, 138, 0);"/>
		</g>
		<g id="L7">
			<path class="st1" d="M295.5,700c7.1,0.4,16.3-5.9,21.5-1.8c0.8,0.6,1.3,1.3,1.6,2.1c-3.1,1.9-7,3.1-9.6,2.9&#10;&#9;&#9;&#9;&#9;c3.1,1,6.8,0.8,9.9-0.9c-0.1,3.4-3.3,7-7.6,7.9C303.4,711.8,299.8,707.8,295.5,700z" style="fill: rgb(87, 138, 0);"/>
		</g>
		<g id="L6">
			<path class="st1" d="M292.4,705.3c5.2,4.8,16.4,5.8,17.7,12.2c0.2,1,0.1,1.8-0.1,2.6c-3.6-0.6-7.4-2.1-9.3-3.9&#10;&#9;&#9;&#9;&#9;c1.7,2.7,4.8,5,8.2,5.6c-2.2,2.5-7,3.3-10.9,1.3C291.1,719.5,290.8,714.1,292.4,705.3z" style="fill: rgb(87, 138, 0);"/>
		</g>
		<g id="L5">
			<path class="st1" d="M288,716.9c4.1,5.8,14.8,9.1,14.9,15.6c0,1-0.2,1.8-0.7,2.6c-3.4-1.3-6.8-3.5-8.3-5.7c1.1,3,3.6,5.8,6.9,7.2&#10;&#9;&#9;&#9;&#9;c-2.7,2-7.5,1.8-10.9-1C283.7,730.5,284.6,725.2,288,716.9z" style="fill: rgb(87, 138, 0);"/>
		</g>
		<g id="L4">
			<path class="st1" d="M371,647.6c-1.8,6.9,2.5,17.2-2.5,21.4c-0.8,0.6-1.6,1-2.4,1.1c-1.2-3.5-1.6-7.5-0.9-10&#10;&#9;&#9;&#9;&#9;c-1.6,2.8-2.2,6.5-1.2,9.9c-3.3-0.8-6.2-4.6-6.2-9.1C357.8,653,362.4,650.3,371,647.6z" style="fill: rgb(87, 138, 0);"/>
		</g>
		<g id="L3">
			<path class="st1" d="M387.1,647.9c-2.4,6.7,1.1,17.3-4.2,21.1c-0.8,0.6-1.6,0.9-2.5,0.9c-0.9-3.5-1-7.6-0.1-10&#10;&#9;&#9;&#9;&#9;c-1.8,2.7-2.7,6.3-1.9,9.8c-3.2-1.1-5.8-5.1-5.5-9.5C373.5,652.2,378.4,649.8,387.1,647.9z" style="fill: rgb(87, 138, 0);"/>
		</g>
		<g id="L2">
			<path class="st1" d="M403.2,648.6c-2.4,6.7,1.1,17.3-4.2,21.1c-0.8,0.6-1.6,0.9-2.5,0.9c-0.9-3.5-1-7.6-0.1-10&#10;&#9;&#9;&#9;&#9;c-1.8,2.7-2.7,6.3-1.9,9.8c-3.2-1.1-5.8-5.1-5.5-9.5C389.7,652.9,394.5,650.5,403.2,648.6z" style="fill: rgb(87, 138, 0);"/>
		</g>
		<g id="L1">
			<path class="st1" d="M415.1,648.5c-0.9,7.1,4.6,16.7,0.2,21.5c-0.7,0.7-1.4,1.2-2.2,1.4c-1.6-3.3-2.6-7.3-2.1-9.8&#10;&#9;&#9;&#9;&#9;c-1.2,3-1.3,6.7,0.1,10c-3.3-0.4-6.8-3.8-7.3-8.2C402.7,655.5,406.9,652.2,415.1,648.5z" style="fill: rgb(87, 138, 0);"/>
		</g>
		<g id="L0">
			<path id="jj" class="st1"  d="M428.2,645.9c-0.5,7.1,5.6,16.4,1.4,21.5c-0.6,0.8-1.4,1.3-2.1,1.5c-1.8-3.2-3-7.1-2.7-9.7&#10;&#9;&#9;&#9;&#9;c-1,3-1,6.8,0.7,10c-3.4-0.2-7-3.4-7.8-7.8C416.2,653.6,420.3,650.1,428.2,645.9z" />
		</g>
	</g><path class="st0" d="M439.2,861.4c-1.9,1.1-3.9,2-5.9,2.8c-4.1,1.6-8.4,2.6-12.7,3.2c-8.7,1.2-17.4,0.8-25.9-1&#10;&#9;&#9;c-4.5-0.9-9.1-1.4-13.7-1.4c-4.6,0-9.3,0.6-13.9,1.8c-4.5,1.2-8.9,3-13,5.1c-2,1-3.9,2-5.8,3c-5.1-2.8-9.6-5.3-12.7-8.3&#10;&#9;&#9;c-3.3-3.2-5.2-8-6-11c-1.2-4.3-2.2-40.2-4.9-52.9c-0.3-1.6-0.7-3.2-1-4.8l-1.3-4.8c-0.8-3.2-2-6.3-3.1-9.5&#10;&#9;&#9;c-0.1-0.4-0.3-0.8-0.4-1.2l-0.5-1.2l-0.6-1.3c-1.8-7.1-3.1-14.2-3.2-20.9c-0.1-3.8,0.3-7.4,1-11c0.4-1.8,0.9-3.6,1.5-5.4&#10;&#9;&#9;c0.6-1.8,1.4-3.7,2.2-5.5c1.6-3.7,3.5-7.6,5.5-11.6c1.9-4,3.8-8.1,5.4-12.3c0.8-2.1,1.6-4.2,2.4-6.3c0.4-1.1,0.7-2,1-2.9&#10;&#9;&#9;c0.3-0.9,0.7-1.8,1.1-2.6c1.6-3.4,3.7-6.6,6.3-9.3c5.2-5.5,12.6-9.1,20.6-11.2c8-2.1,16.5-3,25.1-3.5c8.6-0.6,17.3-0.7,26-1.7&#10;&#9;&#9;c4.3-0.5,8.7-1.3,12.9-2.9c2.1-0.8,4.1-1.8,5.8-3.2c1.7-1.4,3.1-3.1,4-5.1c-1.1,1.9-2.6,3.5-4.4,4.6c-1.8,1.2-3.8,2-5.8,2.6&#10;&#9;&#9;c-4.1,1.1-8.4,1.5-12.7,1.6c-8.6,0.2-17.2-0.5-25.9-0.7c-8.7-0.2-17.6-0.2-26.6,1.3c-4.5,0.8-9,1.9-13.3,3.7&#10;&#9;&#9;c-2.7,1.1-5.4,2.5-8,4.2c-1.4,0.5-2.7,0.7-4.2,0.6c-1.7-0.1-3.6-0.7-5.5-1.6c-1.9-0.9-3.8-2.1-5.7-3.3c-1.9-1.3-3.8-2.7-5.7-4&#10;&#9;&#9;c-3.9-2.7-7.9-5.4-12.3-7.5c-2.2-1-4.4-2-6.7-2.7c-2.3-0.7-4.6-1.3-6.9-1.6c2.2,0.8,4.4,1.7,6.5,2.7c2.1,1.1,4,2.3,5.9,3.6&#10;&#9;&#9;c3.8,2.7,7.1,5.8,10.5,9.1c1.7,1.6,3.3,3.3,5.1,5c1.8,1.7,3.6,3.3,5.8,4.8c1.4,0.9,2.9,1.8,4.5,2.5c-1.9,2.2-3.6,4.5-5,7&#10;&#9;&#9;c-0.6,1.1-1.2,2.1-1.7,3.2c-0.5,1.1-1,2.3-1.5,3.1c-0.9,1.9-1.8,3.8-2.7,5.6c-1.9,3.7-4,7.3-6.1,11c-2.2,3.7-4.5,7.4-6.7,11.4&#10;&#9;&#9;c-1.1,2-2.2,4.1-3.2,6.3c-1,2.2-1.9,4.5-2.6,6.9c-0.7,2.2-1.2,4.4-1.7,6.6c-0.1-0.1-0.1-0.1-0.2-0.2c-4-4.7-7.8-9.2-11.4-13.8&#10;&#9;&#9;c-7.1-9.1-13.1-19.1-18-29.7c-2.5-5.3-4.6-10.9-6.6-16.5c0-1.5,0.1-2.9,0.2-4.4c0.3-2.1,0.7-4.3,1.4-6.3c1.3-4.1,3.5-8,6.3-11.7&#10;&#9;&#9;c2.8-3.7,6.1-7.2,9.5-11c1.6-1.9,3.3-3.9,4.8-6.1c1.5-2.2,2.7-4.6,3.6-7.2c0.2-0.7,0.4-1.3,0.6-2l0.4-2l0.6-3.6&#10;&#9;&#9;c0.5-2.4,0.9-4.7,1.6-7c1.3-4.6,3-9.1,5.7-12.9c2.7-3.9,6.6-6.8,11.1-8.5c4.5-1.8,9.4-2.4,14.3-2.7l-3.7,0c-1.2,0-2.5,0.1-3.7,0.2&#10;&#9;&#9;c-1.2,0.1-2.5,0.3-3.7,0.5l-1.8,0.4c-0.6,0.2-1.2,0.2-1.8,0.5c-4.8,1.4-9.3,4.2-12.6,8.2c-3.3,3.9-5.6,8.6-7.3,13.3&#10;&#9;&#9;c-0.9,2.4-1.6,4.8-2.3,7.2l-0.9,3.6l-0.5,1.6c-0.2,0.5-0.4,1-0.6,1.5c-1.7,4-4.8,7.4-8.2,10.7c-3.4,3.3-7.2,6.6-10.7,10.5&#10;&#9;&#9;c-2.7,3-5.3,6.4-7.3,10.2c-3-11.5-5.2-23.4-7.5-35.3c-1.1-6-2.3-12-3.7-17.9c-1.4-6-3-11.9-5.4-17.7c-1.2-2.9-2.6-5.7-4.3-8.3&#10;&#9;&#9;c-1.7-2.6-3.7-5-6.1-7.1c-2.3-2.1-5-3.7-7.9-4.8c-2.8-1.2-5.8-1.9-8.8-2.3c5.9,1.2,11.6,4,15.6,8.2c2,2.1,3.8,4.5,5.1,7.1&#10;&#9;&#9;c1.4,2.6,2.5,5.4,3.4,8.2c1.8,5.6,2.9,11.5,3.7,17.5c0.9,5.9,1.5,11.9,2.1,18c1.2,12.1,2.4,24.2,4.5,36.4c2.1,12.2,5,24.3,9.3,36.1&#10;&#9;&#9;c2,5.5,4.3,11,6.9,16.4c-1-0.1-2-0.1-3-0.2c-4-0.3-7.7-0.6-11-1.6c-3.3-0.9-6.3-2.6-8.8-5.1c-0.3-0.3-0.6-0.6-0.9-1l-0.5-0.5&#10;&#9;&#9;l-0.4-0.5l-0.8-1.1l-0.8-1.2l-0.4-0.6l-0.4-0.7l-0.8-1.3l-1.6-2.7c-2.3-3.5-4.5-7-7-10.4c-2.5-3.4-5-6.7-7.8-9.8&#10;&#9;&#9;c-1.4-1.5-2.8-3.1-4.3-4.5c-1.5-1.4-3-2.8-4.7-4c1.5,1.4,2.8,3,4,4.7c1.2,1.6,2.4,3.3,3.5,5c2.2,3.4,4.2,7,6,10.6&#10;&#9;&#9;c1.9,3.6,3.5,7.3,5.2,11.1l1.2,2.8l0.6,1.4l0.3,0.7l0.4,0.8l0.7,1.6l0.8,1.5l0.4,0.8l0.5,0.7c0.3,0.5,0.6,1,1,1.5&#10;&#9;&#9;c1.4,1.9,3.1,3.7,5,5.2c1.9,1.6,4,2.8,6.1,3.8c4.3,2.1,8.8,3.2,12.9,4.1c4.1,0.9,8,1.7,10.8,3c1.2,0.5,2.1,1.2,2.9,1.8&#10;&#9;&#9;c0.3,0.5,0.6,1,0.9,1.5c3.4,5.3,7.1,10.4,10.6,15.2c3.4,4.9,6.5,9.6,9.1,14.4l1.8,3.6l1.6,3.7c0.6,1.2,0.9,2.5,1.4,3.8l0.7,1.9&#10;&#9;&#9;l0.3,1c0.1,0.3,0.2,0.7,0.3,1c0.7,2.7,1.5,5.2,1.9,8l0.8,4.1l0.5,4.2c1.4,11.1,1.7,45.6,5.6,56.2c0.1,0.2,0.2,0.4,0.3,0.7&#10;&#9;&#9;c-1,0.5-1.9,0.9-2.8,1.4c-4.5,2.5-8.2,5.4-11.9,7.5c-1.8,1-3.7,1.9-5.6,2.4c-1.9,0.5-3.9,0.7-6,0.7c-2.1,0-4.2-0.4-6.3-0.8&#10;&#9;&#9;c-1-0.2-2.2-0.5-3.4-0.8c-1.1-0.3-2.3-0.6-3.4-0.8c-4.6-1.1-9.3-2-13.9-2.6c-4.7-0.6-9.4-1.1-14.2-1.1c-4.7,0-9.5,0.4-14.1,1.5&#10;&#9;&#9;c-4.6,1.1-9,3-12.7,6c3.9-2.6,8.4-4,12.9-4.7c4.5-0.7,9.2-0.7,13.7-0.3c4.4,0.4,8.8,1.2,13.1,2.2c1,0.3,2,0.5,4.3,1&#10;&#9;&#9;c3.2,0.8,6.4,1.8,9.5,2.8c1.1,0.3,2.2,0.7,3.3,1.1c1.1,0.4,2.1,0.7,3.4,1.1c1.6,0.5,3.2,0.9,4.8,1.2c-2.4,1.6-4.8,3.2-7.2,4.5&#10;&#9;&#9;c-2.6,1.4-5.4,2.6-8.2,3.3c-2.9,0.8-5.8,1.2-8.9,1.3l-2.3,0L251,890c-1.5-0.1-3.1-0.2-4.7-0.3c-3.2-0.2-6.3-0.1-9.5,0.2&#10;&#9;&#9;c-3.2,0.3-6.3,0.9-9.3,2c-3,1.1-5.8,2.7-7.9,5c2.3-2.1,5.2-3.5,8.1-4.3c3-0.8,6.1-1.2,9.1-1.2c3.1,0,6.2,0.2,9.2,0.6&#10;&#9;&#9;c1.5,0.2,3,0.5,4.6,0.7l2,0.3c1,0.2,2.6,0.3,4.5,0.3c2.7,0,5.4-0.1,8.1-0.6c3.2-0.6,6.4-1.6,9.4-2.9c5.5-2.4,10.4-5.5,15.3-8.4&#10;&#9;&#9;c0.2,0,0.3,0,0.5-0.1c2.7-0.4,5.2-1.3,7.5-2.4c2.3-1.1,4.5-2.3,6.5-3.4c2-1.1,4-2.1,5.9-3c1.1-0.5,2.2-0.9,3.4-1.3&#10;&#9;&#9;c0.5,0.7,1,1.3,1.5,2c0.6,0.7,1.2,1.4,1.8,2.1c-2.4,1.8-4.8,3.4-7.3,4.8c-2.7,1.5-5.5,2.7-8.5,3.6c-0.7,0.2-1.5,0.4-2.3,0.6&#10;&#9;&#9;l-1.1,0.2l-1.3,0.3c-1.7,0.4-3.4,0.9-5.1,1.5c-3.3,1.2-6.3,2.9-9.1,4.7c-2.9,1.7-5.6,3.5-8.4,5.2c-2.8,1.6-5.8,3.1-8.8,4.1&#10;&#9;&#9;c-3.1,1-6.3,1.7-9.6,2c3.3,0,6.6-0.3,9.9-1c3.3-0.8,6.4-1.9,9.5-3.2c6.1-2.7,11.9-6.1,17.9-7.7c1.5-0.4,3-0.7,4.5-0.8l1.1-0.1&#10;&#9;&#9;l1.3-0.1c0.7-0.1,1.4-0.2,2.2-0.3c3.4-0.7,6.4-1.6,7.7-2c1-0.3,1.9-0.7,2.8-1.1c3.6-1.6,7-3.4,10.3-5.4c0.5,0.4,1,0.7,1.5,1&#10;&#9;&#9;c3.3,2.2,6.6,3.8,9.8,5.1c1,0.4,1.9,0.8,2.8,1.1c-0.8,0.8-1.6,1.5-2.3,2.2c-2.2,2.1-4.4,3.8-6.8,4.6c-1.2,0.4-2.5,0.6-3.9,0.5&#10;&#9;&#9;c-0.7,0-1.4-0.1-2.1-0.2l-1.1-0.2l-1.2-0.3c-6.6-1.5-13.5-2.2-20.1-1.2c-6.7,0.9-12.9,3.4-18.8,6.2c6.2-2,12.6-3.6,19-3.7&#10;&#9;&#9;c6.4-0.1,12.6,1.3,18.5,3.5l1.1,0.4l1.3,0.4c0.9,0.2,1.8,0.5,2.8,0.6c1.5,0.2,3.2,0.3,4.8,0.1c1.2-0.2,3.4-0.5,5-1.3&#10;&#9;&#9;c0.6-0.2,1.1-0.5,1.6-0.8c1.7-0.9,3.2-1.9,4.6-2.9c2.6-1.9,4.9-3.7,6.9-4.7c4.5,1.6,8.5,3.4,11.9,5.9c0.5,0.4,1,0.8,1.5,1.2&#10;&#9;&#9;l1.1,0.9c0.1,0.1,0.2,0.1,0.2,0.2c1.1,0.9,4,2.7,5,3.2c0.2,0.1,0.5,0.2,0.7,0.4c3.3,1.6,6.7,2.7,10.1,3.4&#10;&#9;&#9;c6.8,1.4,13.4,1.4,19.8,0.7c6.4-0.7,12.7-2.1,18.7-4.1c3-1,6-2.2,8.8-3.6c1.4-0.7,2.8-1.5,4.1-2.3c1.3-0.9,2.6-1.8,3.6-3&#10;&#9;&#9;c-1.2,1-2.6,1.7-4,2.3c-1.4,0.6-2.9,1.1-4.3,1.6c-2.9,0.9-5.9,1.5-9,2c-6,0.9-12.2,1.2-18.1,0.9c-6-0.4-11.8-1.4-17-3.5&#10;&#9;&#9;c-2.6-1-5-2.3-7-3.8c-0.1-0.1-0.3-0.2-0.4-0.3c-1-0.9-1.7-1.5-2.3-2.1l0,0c17.4,2.7,49.1-13.7,62.4-12.7&#10;&#9;&#9;c-14.2-5.4-59.2,12.9-71.7,4.1c0,0,0,0,0,0c-0.7-0.5-1.5-1.1-2.2-1.5c-0.7-0.5-1.4-0.9-2.1-1.3c0.5-0.3,1-0.6,1.5-0.9&#10;&#9;&#9;c3.7-2.2,7.4-4.1,11.3-5.5c1.3-0.5,2.7-0.9,4-1.2c1.2-0.3,5.5-1.1,6.8-1.2c0.5-0.1,1-0.1,1.4-0.1c4.2-0.3,8.5-0.2,12.8,0.3&#10;&#9;&#9;c6.7,0.9,13.5,0.9,20.2,0.1c2.5-0.3,4.7-0.7,5.7-1c0.3-0.1,0.7-0.1,1-0.2c4.4-1,8.7-2.4,12.8-4.3c2-1,4-2.1,5.8-3.3&#10;&#9;&#9;c1.8-1.3,3.6-2.8,4.6-4.8C442.9,859,441,860.3,439.2,861.4z" style="fill: rgb(84, 51, 8);" transform="matrix(1, 0, 0, 1, -171.5941920754189, -549.5652181476737)"/></svg>
